<svg xmlns="http://www.w3.org/2000/svg" width="372" height="812" fill="none"><path fill="#CFE1F4" d="m77.525 152.159 2.843 7.682 7.682 2.843-7.682 2.842-2.843 7.683-2.843-7.683L67 162.684l7.682-2.843 2.843-7.682ZM261.525 566l2.843 7.682 7.682 2.843-7.682 2.843-2.843 7.682-2.843-7.682-7.682-2.843 7.682-2.843 2.843-7.682ZM113.004 127l1.929 5.213 5.213 1.929-5.213 1.929-1.929 5.213-1.929-5.213-5.213-1.929 5.213-1.929 1.929-5.213ZM303.142 47l1.929 5.213 5.213 1.929-5.213 1.929-1.929 5.213-1.929-5.213L296 54.14l5.213-1.928L303.142 47ZM68.142 751l1.929 5.213 5.213 1.929-5.213 1.929-1.93 5.213-1.928-5.213L61 758.142l5.213-1.929L68.142 751ZM284.532 258l3.655 9.877 9.877 3.655-9.877 3.655-3.655 9.877-3.655-9.877-9.877-3.655 9.877-3.655 3.655-9.877ZM94.532 539l3.655 9.877 9.877 3.655-9.877 3.655-3.655 9.877-3.655-9.877L81 552.532l9.877-3.655L94.532 539Z"/></svg>